<svg xmlns="http://www.w3.org/2000/svg" xmlns:xlink="http://www.w3.org/1999/xlink" fill="none" version="1.1" width="123" height="25" viewBox="0 0 123 25"><defs><linearGradient x1="0" y1="0.9941232800483704" x2="0.8819682598114014" y2="0.08868519961833954" id="master_svg0_296_17214"><stop offset="0%" stop-color="#FF8B00" stop-opacity="1"/><stop offset="100%" stop-color="#FFEB98" stop-opacity="0"/></linearGradient><linearGradient x1="0.9196937084197998" y1="0.06999668478965759" x2="0" y2="1" id="master_svg1_296_17217"><stop offset="0%" stop-color="#FFEB98" stop-opacity="0"/><stop offset="100%" stop-color="#FF8B00" stop-opacity="1"/><stop offset="100%" stop-color="#FF8B00" stop-opacity="0"/></linearGradient><linearGradient x1="1" y1="0" x2="0" y2="1" id="master_svg2_296_17207"><stop offset="20.714285969734192%" stop-color="#FF8B00" stop-opacity="1"/><stop offset="99.99993443489075%" stop-color="#F9E69C" stop-opacity="1"/></linearGradient></defs><g><g><g><path d="M81.56912000976563,18.641448298263548L82.28909000976563,14.33604829826355L81.45069000976562,13.03682829826355L80.21334000976563,14.31774829826355L79.01651000976562,21.64754829826355L81.56912000976563,18.641448298263548ZM90.46741000976563,20.68304829826355L89.28931000976563,19.70024829826355L81.83093000976562,19.70024829826355L80.01386800976563,21.64754829826355L88.99009000976562,21.64754829826355L90.46741000976563,20.68304829826355ZM83.58566000976562,6.21515829826355L82.88751000976562,10.60572829826355L81.63146000976562,11.93233829826355L80.83357000976562,10.62702829826355L82.00858000976562,3.14814829826355L83.58566000976562,6.21515829826355ZM93.13851000976562,4.11267429826355L91.64241000976563,5.09545829826355L84.16225000976563,5.09545829826355L83.00594000976562,3.14814829826355L91.98221000976562,3.14814829826355L93.13851000976562,4.11267429826355ZM91.80451000976562,12.47696829826355L90.30851000976563,13.46884829826355L83.52644000976562,13.46884829826355L82.34831000976563,12.47696829826355L83.82565000976562,11.52157829826355L90.64511000976563,11.52157829826355L91.80451000976562,12.47696829826355ZM122.16161000976562,13.12809829826355L123.00001000976562,14.45474829826355L122.28311000976562,18.848348298263552L121.04581000976563,20.17494829826355L120.22921000976562,18.86964829826355L120.92741000976562,14.43344829826355L122.16161000976562,13.12809829826355ZM112.44981000976563,4.81248829826355L113.26641000976562,6.13908829826355L112.56821000976562,10.535748298263549L111.31221000976562,11.86234829826355L110.51431000976562,10.55400829826355L111.21251000976562,6.12083829826355L112.44981000976563,4.81248829826355ZM121.48531000976563,12.486098298263549L119.96741000976562,13.46884829826355L113.18541000976563,13.46884829826355L112.01041000976562,12.486098298263549L113.48461000976562,11.52157829826355L120.30711000976562,11.52157829826355L121.48531000976563,12.486098298263549ZM120.12951000976562,20.86864829826355L118.63341000976563,21.84234829826355L111.94291000976563,21.84234829826355L110.76471000976562,20.86864829826355L112.24201000976562,19.89504829826355L118.97001000976562,19.89504829826355L120.12951000976562,20.86864829826355ZM122.72781000976562,4.11267329826355L121.21301000976563,5.09545829826355L114.52241000976562,5.09545829826355L113.34741000976562,4.11267429826355L114.84351000976562,3.14814829826355L121.57141000976563,3.14814829826355L122.72781000976562,4.11267329826355Z" fill="#FF8B00" fill-opacity="1"/></g><g><g><path d="M97.20539027191163,3.356244280934334L98.36067027191162,5.322644280934334L105.99303027191162,5.322644280934334L107.32893027191162,4.330226280934334L106.17363027191162,3.356244280934334L97.20539027191163,3.356244280934334ZM106.07393027191162,10.717954280934334L106.88983027191162,12.036054280934334L108.12313027191162,10.925924280934334L108.82363027191163,6.355004280934334L108.00773027191163,5.018464280934333L106.72213027191162,6.111114280934334L106.07393027191162,10.717954280934334ZM95.01316027191162,10.717954280934334L95.82902027191162,12.036054280934334L97.08706027191162,10.696444280934333L97.70362027191162,6.111114280934334L96.16790027191162,3.356244280934334L95.01316027191162,10.717954280934334ZM96.52655027191162,12.589104280934334L97.70363027191162,13.581544280934335L105.04093027191162,13.581544280934335L105.99303027191162,12.589104280934334L105.22773027191162,11.615124280934333L97.70362027191162,11.615124280934333L96.52655027191162,12.589104280934334ZM93.40013027191162,20.740444280934334L94.21598727191162,22.037044280934335L95.47091027191162,20.722044280934334L96.44870027191162,14.632344280934333L95.62973027191163,13.295784280934333L94.39659927191163,14.610844280934334L93.40013027191162,20.740444280934334Z" fill="#FF8B00" fill-opacity="1"/></g><g><path d="M101.16757249832153,18.85165708946705L103.65889249832153,21.666667089467047L105.63837249832153,22.03703708946705L105.35534249832153,20.277777089467047L102.83354249832153,17.500000089467047L101.16757249832153,17.03703708946705L101.16757249832153,18.85165708946705Z" fill="#FF8B00" fill-opacity="1"/></g></g></g><g><path d="M43.25314245605469,13.053063104248046L44.07204245605469,14.386563104248047L43.374542456054684,18.804763104248046L42.11964245605469,20.159763104248047L41.32244245605469,18.82626310424805L42.019942456054686,14.368063104248046L43.25314245605469,13.053063104248046ZM32.19230245605469,13.053063104248046L33.02995245605469,14.386563104248047L32.33243245605469,18.804763104248046L31.077500456054686,20.159763104248047L30.261642456054688,18.82626310424805L30.97785345605469,14.368063104248046L32.19230245605469,13.053063104248046ZM44.58894245605469,4.628253104248047L45.407942456054684,5.964793104248047L44.710442456054686,10.392263104248046L43.45234245605469,11.750313104248047L42.65524245605469,10.413773104248047L43.352742456054685,5.9463631042480465L44.58894245605469,4.628253104248047ZM33.52819245605469,4.628253104248047L34.365842456054686,5.964793104248047L33.66832245605469,10.392263104248046L32.41339245605469,11.750313104248047L31.594422456054687,10.413773104248047L32.31374245605469,5.9463631042480465L33.52819245605469,4.628253104248047ZM41.222842456054686,20.84796310424805L39.70629245605468,21.84036310424805L32.930312456054686,21.84036310424805L31.75634245605469,20.84796310424805L33.25104245605469,19.87396310424805L40.06440245605469,19.87396310424805L41.222842456054686,20.84796310424805ZM43.91324245605469,3.946163104248047L42.39674245605469,4.929363104248047L35.62077245605469,4.929363104248047L34.44681245605469,3.946163104248047L35.94151245605469,2.962963104248047L42.75484245605469,2.962963104248047L43.91324245605469,3.946163104248047ZM60.31454245605469,5.018463104248047L61.13034245605469,6.355003104248047L60.429842456054686,10.925923104248046L59.19654245605469,12.036053104248047L58.38074245605469,10.717953104248046L59.02884245605469,6.111113104248046L60.31454245605469,5.018463104248047ZM50.01034245605469,6.111113104248046L49.393842456054685,10.696443104248047L48.135742456054686,12.036053104248047L47.31994245605469,10.717953104248046L48.47464245605469,3.356244104248047L50.01034245605469,6.111113104248046ZM59.63564245605468,4.330223104248047L58.29974245605469,5.322643104248047L50.66744245605469,5.322643104248047L49.51214245605469,3.3562431042480467L58.480342456054686,3.3562431042480467L59.63564245605468,4.330223104248047ZM58.29974245605469,12.589103104248046L57.347642456054686,13.581563104248048L50.01044245605469,13.581563104248048L48.83334245605469,12.589103104248046L50.01034245605469,11.615123104248047L57.53444245605469,11.615123104248047L58.29974245605469,12.589103104248046ZM47.93654245605469,13.295763104248048L48.75544245605469,14.632363104248046L47.777642456054686,20.721963104248047L46.52274245605469,22.03706310424805L45.70694245605469,20.740463104248047L46.703342456054685,14.610763104248047L47.93654245605469,13.295763104248048ZM58.29974245605469,21.851863104248046L56.320242456054686,21.481463104248046L53.53354245605469,18.586663104248046L53.705042456054684,17.142363104248048L55.19944245605468,17.234963104248045L58.29974245605469,20.370363104248046L58.29974245605469,21.851863104248046ZM74.60444245605468,13.043863104248047L75.4390424560547,14.374263104248048L74.74144245605468,18.783263104248046L73.48654245605468,20.135163104248047L72.67074245605468,18.804763104248046L73.36824245605469,14.355763104248046L74.60444245605468,13.043863104248047ZM75.93724245605469,4.628253104248047L76.77494245605469,5.961723104248047L76.07734245605468,10.386123104248046L74.82244245605469,11.741093104248048L74.00664245605469,10.407633104248047L74.60444245605468,5.833333104248046L75.93724245605469,4.628253104248047ZM63.70244245605469,18.586663104248046L64.41874245605469,14.205263104248047L63.58104245605469,12.884063104248046L62.34794245605469,14.186763104248048L61.170842456054686,21.64376310424805L63.70244245605469,18.586663104248046ZM72.61154245605468,20.669763104248048L71.41574245605469,19.677363104248048L63.96094245605469,19.677363104248048L62.14864245605469,21.64376310424805L71.11684245605468,21.64376310424805L72.61154245605468,20.669763104248048ZM65.84704245605468,5.833333104248046L65.01654245605468,10.398413104248046L63.76164245605469,11.741093104248048L62.96444245605469,10.419913104248046L64.16584245605469,3.148148104248047L65.84704245605468,5.833333104248046ZM75.26154245605468,3.946163104248047L74.00664245605469,4.929363104248047L66.29334245605469,4.929363104248047L65.13804245605468,2.962963104248047L74.10624245605469,2.962963104248047L75.26154245605468,3.946163104248047Z" fill="#FFFFFF" fill-opacity="1"/></g><g><g><g><path d="M0,10.0554L2.60533,10.0554L9.9561,2.39852L9.9561,0L7.25772,0L0,7.74908L0,10.0554Z" fill="#FF8B00" fill-opacity="1"/></g><g transform="matrix(1,0,0,-1,0,50)"><path d="M0,35.0554L2.60533,35.0554L9.9561,27.39852L9.9561,25L7.25772,25L0,32.74908L0,35.0554Z" fill="url(#master_svg0_296_17214)" fill-opacity="1"/></g><g transform="matrix(-1,0,0,1,49.31526565551758,0)"><path d="M24.65763282775879,10.0554L27.08603282775879,10.0554L34.61373282775879,2.22222L34.61373282775879,0L32.129642827758786,0L24.65763282775879,7.74908L24.65763282775879,10.0554Z" fill="url(#master_svg1_296_17217)" fill-opacity="1"/></g><g transform="matrix(-1,0,0,-1,49.31526565551758,50)"><path d="M24.65763282775879,35.0554L27.262962827758788,35.0554L34.61373282775879,27.39852L34.61373282775879,25L31.915352827758788,25L24.65763282775879,32.74908L24.65763282775879,35.0554Z" fill="#FF8B00" fill-opacity="1"/></g></g><g transform="matrix(0.7090410590171814,0.7051671743392944,-0.7090410590171814,0.7051672339439392,8.694596863854628,-6.564807283101942)"><rect x="12.322391510009766" y="7.205911159515381" width="7.923111915588379" height="7.90500545501709" rx="0" fill="url(#master_svg2_296_17207)" fill-opacity="1"/></g><g transform="matrix(0.7090410590171814,0.7051671743392944,-0.7090410590171814,0.7051672339439392,8.636402890872091,-6.580519962776407)"><path d="M12.31212043762207,15.1399417578125L20.33466043762207,15.1270617578125L14.81493043762207,12.6371117578125L12.32660563762207,7.1280517578125L12.31212043762207,15.1399417578125Z" fill="#694F2F" fill-opacity="1"/></g></g></g></svg>