<svg xmlns="http://www.w3.org/2000/svg" xmlns:xlink="http://www.w3.org/1999/xlink" fill="none" version="1.1" width="63" height="18" viewBox="0 0 63 18"><g><path d="M26.2383,1.93066L29.9297,1.93066Q31.6816,1.93066,32.5781,2.20605Q33.4805,2.47559,34.0312,3.30762Q34.5879,4.13965,34.5879,5.99121Q34.5879,7.24512,34.1953,7.7373Q33.8086,8.22949,32.6543,8.49316Q33.9375,8.78613,34.3945,9.45996Q34.8516,10.1279,34.8516,11.5166L34.8516,12.8408Q34.8516,14.2822,34.5234,14.9795Q34.1953,15.6709,33.4746,15.9287Q32.7539,16.1807,30.5215,16.1807L26.2383,16.1807L26.2383,1.93066ZM29.9414,4.18066L29.9414,7.55566Q30.1816,7.54395,30.3105,7.54395Q30.8555,7.54395,31.002,7.2627Q31.1543,6.97559,31.1543,5.62207Q31.1543,4.91309,31.0312,4.62598Q30.9082,4.33887,30.709,4.26855Q30.5156,4.19238,29.9414,4.18066ZM29.9414,9.80566L29.9414,13.9307Q30.7266,13.9014,30.9375,13.6787Q31.1543,13.4502,31.1543,12.5537L31.1543,11.1826Q31.1543,10.2334,30.9609,10.0342Q30.7676,9.83496,29.9414,9.80566ZM44.291,8.69824L44.291,11.4463Q44.291,12.958,44.1328,13.667Q43.9746,14.3701,43.4531,14.9854Q42.9375,15.5947,42.123,15.8877Q41.3145,16.1807,40.2598,16.1807Q39.082,16.1807,38.2617,15.9346Q37.4473,15.6826,36.9902,15.1787Q36.5391,14.6748,36.3457,13.96Q36.1523,13.2451,36.1523,11.8154L36.1523,8.94434Q36.1523,7.37988,36.5039,6.50098Q36.8555,5.62207,37.7695,5.08887Q38.6836,4.55566,40.1074,4.55566Q41.3027,4.55566,42.1582,4.90137Q43.0195,5.24121,43.4824,5.79199Q43.9512,6.33691,44.1211,6.92285Q44.291,7.50879,44.291,8.69824ZM40.7402,8.02441Q40.7402,7.22168,40.6406,7.0166Q40.5469,6.80566,40.2305,6.80566Q39.9141,6.80566,39.8086,7.0166Q39.7031,7.22168,39.7031,8.02441L39.7031,12.7412Q39.7031,13.4795,39.8086,13.708Q39.9141,13.9307,40.2246,13.9307Q40.541,13.9307,40.6406,13.7256Q40.7402,13.5205,40.7402,12.8467L40.7402,8.02441ZM53.666,8.69824L53.666,11.4463Q53.666,12.958,53.5078,13.667Q53.3496,14.3701,52.8281,14.9854Q52.3125,15.5947,51.498,15.8877Q50.6895,16.1807,49.6348,16.1807Q48.457,16.1807,47.6367,15.9346Q46.8223,15.6826,46.3652,15.1787Q45.9141,14.6748,45.7207,13.96Q45.5273,13.2451,45.5273,11.8154L45.5273,8.94434Q45.5273,7.37988,45.8789,6.50098Q46.2305,5.62207,47.1445,5.08887Q48.0586,4.55566,49.4824,4.55566Q50.6777,4.55566,51.5332,4.90137Q52.3945,5.24121,52.8574,5.79199Q53.3262,6.33691,53.4961,6.92285Q53.666,7.50879,53.666,8.69824ZM50.1152,8.02441Q50.1152,7.22168,50.0156,7.0166Q49.9219,6.80566,49.6055,6.80566Q49.2891,6.80566,49.1836,7.0166Q49.0781,7.22168,49.0781,8.02441L49.0781,12.7412Q49.0781,13.4795,49.1836,13.708Q49.2891,13.9307,49.5996,13.9307Q49.916,13.9307,50.0156,13.7256Q50.1152,13.5205,50.1152,12.8467L50.1152,8.02441ZM62.6543,4.55566L61.2129,9.24316L63.0879,16.1807L59.666,16.1807L58.5586,11.1533L58.5586,16.1807L55.0078,16.1807L55.0078,1.93066L58.5586,1.93066L58.5586,7.99512L59.666,4.55566L62.6543,4.55566Z" fill="#FFFFFF" fill-opacity="1"/><path d="M9.19336,10.2861Q9.19336,12.4541,9.09375,13.3564Q8.99414,14.2588,8.46094,15.0088Q7.92773,15.7529,7.01953,16.1572Q6.11719,16.5557,4.91602,16.5557Q3.77344,16.5557,2.85938,16.1807Q1.95117,15.7998,1.39453,15.0439Q0.84375,14.2881,0.738281,13.4033Q0.632812,12.5127,0.632812,10.2861L0.632812,7.8252Q0.632812,5.65723,0.732422,4.75488Q0.837891,3.85254,1.36523,3.1084Q1.89844,2.3584,2.80078,1.95996Q3.70898,1.55566,4.91602,1.55566Q6.05859,1.55566,6.9668,1.93652Q7.875,2.31152,8.42578,3.06738Q8.98242,3.82324,9.08789,4.71387Q9.19336,5.59863,9.19336,7.8252L9.19336,10.2861ZM5.49609,5.42871Q5.49609,4.38574,5.38477,4.09863Q5.2793,3.80566,4.93359,3.80566Q4.64648,3.80566,4.48828,4.04004Q4.33594,4.27441,4.33594,5.42871L4.33594,12.3955Q4.33594,13.6963,4.43555,14.001Q4.54102,14.3057,4.91016,14.3057Q5.28516,14.3057,5.39062,13.9541Q5.49609,13.6025,5.49609,12.2842L5.49609,5.42871ZM13.9336,4.55566L13.793,6.36621Q14.5664,4.65527,16.0371,4.55566L16.0371,8.68066Q15.0586,8.68066,14.6016,8.93848Q14.1445,9.19043,14.0391,9.64746Q13.9336,10.0986,13.9336,11.7334L13.9336,16.1807L10.3828,16.1807L10.3828,4.55566L13.9336,4.55566ZM24.8379,1.93066L24.8379,16.1807L21.2871,16.1807L21.2871,15.0615Q20.7773,15.624,20.2148,15.9053Q19.6523,16.1807,19.0371,16.1807Q18.2109,16.1807,17.6016,15.7646Q16.998,15.3428,16.8223,14.7979Q16.6523,14.2471,16.6523,12.999L16.6523,7.74902Q16.6523,6.45996,16.8223,5.9209Q16.998,5.37598,17.6133,4.96582Q18.2285,4.55566,19.0781,4.55566Q19.7402,4.55566,20.2852,4.83691Q20.8359,5.11816,21.2871,5.68066L21.2871,1.93066L24.8379,1.93066ZM21.2871,7.77246Q21.2871,7.19824,21.1758,7.00488Q21.0645,6.80566,20.7422,6.80566Q20.4258,6.80566,20.3145,6.98145Q20.2031,7.15723,20.2031,7.77246L20.2031,12.8936Q20.2031,13.5264,20.3086,13.7314Q20.4141,13.9307,20.7129,13.9307Q21.0586,13.9307,21.1699,13.708Q21.2871,13.4795,21.2871,12.6064L21.2871,7.77246Z" fill="#7A6CF8" fill-opacity="1"/></g></svg>