<?xml version="1.0" encoding="UTF-8"?>
<svg width="512px" height="512px" viewBox="0 0 512 512" version="1.1" xmlns="http://www.w3.org/2000/svg" xmlns:xlink="http://www.w3.org/1999/xlink">
    <title>ordi icon-512</title>
    <defs>
        <linearGradient x1="50%" y1="0%" x2="50%" y2="100%" id="linearGradient-1">
            <stop stop-color="#282828" offset="0%"></stop>
            <stop stop-color="#121212" offset="100%"></stop>
        </linearGradient>
    </defs>
    <g id="Page-1" stroke="none" stroke-width="1" fill="none" fill-rule="evenodd">
        <g id="ordi-icon-512">
            <g id="Rectangle">
                <g id="path-2-link" fill="url(#linearGradient-1)">
                    <rect id="path-2" x="0" y="0" width="512" height="512" rx="256"></rect>
                </g>
                <g id="path-2-link" fill="#000000" fill-rule="nonzero">
                    <rect id="path-2" x="0" y="0" width="512" height="512" rx="256"></rect>
                </g>
            </g>
            <g id="Group" transform="translate(120.000000, 133.000000)" fill="#FFFFFF" fill-rule="nonzero">
                <path d="M115,0 L115,31.989011 L74.4584265,31.989011 C63.8155822,31.989011 58.7193276,37.2557654 58.6164306,47.9182618 L58.6148397,48.2497502 L58.6148397,96.8886114 C58.6148397,109.839404 55.4246174,117.935334 48.2510759,122.734537 L47.9801994,122.912965 L47.8439931,123 L47.9801994,123.087035 C55.1591088,127.74288 58.4477034,135.591511 58.6086175,148.131215 L58.6132659,148.615828 L58.6148397,197.75025 C58.6148397,208.524012 63.6024938,213.900703 74.1310343,214.00931 L74.4584265,214.010989 L115,214.010989 L115,246 L66.9975764,246 C36.7263136,246 20.395605,230.543345 20.072018,201.948695 L20.0671141,201.078172 L20.0671141,148.343407 C20.0671141,142.041841 17.4850805,139.334235 11.9461804,139.252415 L11.6843773,139.2505 L0,139.2505 L0,106.7495 L11.6843773,106.7495 C17.315771,106.7495 19.9844415,104.138841 20.0652215,97.9493507 L20.0671141,97.6565934 L20.0671141,44.9218282 C20.0671141,16.0620016 36.09511,0.316747848 66.0845347,0.00472875681 L66.9975764,0 L115,0 Z M204.959402,0 C235.192668,0 251.668557,15.5126912 251.995052,44.0529857 L252,44.9218282 L252,97.6565934 C252,103.935956 254.553093,106.665082 259.837881,106.747569 L260.087607,106.7495 L272,106.7495 L272,139.2505 L260.087607,139.2505 C254.71741,139.2505 252.081698,141.88302 252.001871,148.051658 L252,148.343407 L252,201.078172 C252,229.881397 235.826443,245.68212 205.871348,245.995254 L204.959402,246 L157,246 L157,214.010989 L197.523504,214.010989 C208.35061,214.010989 213.456229,208.77092 213.558268,198.079249 L213.559829,197.75025 L213.559829,149.111389 C213.559829,148.628791 213.564042,148.153002 213.572516,147.683936 L213.595158,146.754744 C213.95426,135.0979 217.067707,127.719876 223.700614,123.243418 L223.964268,123.068219 L224.069757,123 L223.964268,122.931781 C216.889055,118.302739 213.719788,110.482739 213.565746,97.8684264 L213.561344,97.387094 L213.559829,96.8886114 L213.559829,48.2497502 C213.559829,37.4468002 208.563575,32.0976103 197.85316,31.9906481 L197.523504,31.989011 L157,31.989011 L157,0 L204.959402,0 Z M136,72 C164.166522,72 187,94.8334778 187,123 C187,151.166522 164.166522,174 136,174 C107.833478,174 85,151.166522 85,123 C85,94.8334778 107.833478,72 136,72 Z M136,97.5 C121.916739,97.5 110.5,108.916739 110.5,123 C110.5,137.083261 121.916739,148.5 136,148.5 C150.083261,148.5 161.5,137.083261 161.5,123 C161.5,108.916739 150.083261,97.5 136,97.5 Z" id="Combined-Shape"></path>
            </g>
        </g>
    </g>
</svg>